<?plantuml 1.2026.1?><svg xmlns="http://www.w3.org/2000/svg" xmlns:xlink="http://www.w3.org/1999/xlink" contentStyleType="text/css" data-diagram-type="DESCRIPTION" height="375px" preserveAspectRatio="none" style="width:731px;height:375px;background:#FFFFFF;" version="1.1" viewBox="0 0 731 375" width="731px" zoomAndPan="magnify"><title>System Component Diagram</title><defs/><g><g class="title" data-source-line="1"><text fill="#000000" font-family="sans-serif" font-size="14" font-weight="bold" lengthAdjust="spacing" textLength="225.1348" x="245.9326" y="22.9951">System Component Diagram</text></g><!--cluster AdvancedAnalogClock.App--><g class="cluster" data-qualified-name="AdvancedAnalogClock.App" data-source-line="3" id="ent0002"><path d="M8.5,43.2969 L219.8965,43.2969 A3.75,3.75 0 0 1 222.3965,45.7969 L229.3965,65.5938 L721.5,65.5938 A2.5,2.5 0 0 1 724,68.0938 L724,244.3869 A2.5,2.5 0 0 1 721.5,246.8869 L8.5,246.8869 A2.5,2.5 0 0 1 6,244.3869 L6,45.7969 A2.5,2.5 0 0 1 8.5,43.2969" fill="none" style="stroke:#000000;stroke-width:1.5;"/><line style="stroke:#000000;stroke-width:1.5;" x1="6" x2="229.3965" y1="65.5938" y2="65.5938"/><text fill="#000000" font-family="sans-serif" font-size="14" font-weight="bold" lengthAdjust="spacing" textLength="210.3965" x="10" y="58.292">AdvancedAnalogClock.App</text></g><!--cluster AdvancedAnalogClock.Domain--><g class="cluster" data-qualified-name="AdvancedAnalogClock.Domain" data-source-line="10" id="ent0007"><path d="M221.5,270.8869 L462.0586,270.8869 A3.75,3.75 0 0 1 464.5586,273.3869 L471.5586,293.1838 L471.5,293.1838 A2.5,2.5 0 0 1 474,295.6838 L474,365.6869 A2.5,2.5 0 0 1 471.5,368.1869 L221.5,368.1869 A2.5,2.5 0 0 1 219,365.6869 L219,273.3869 A2.5,2.5 0 0 1 221.5,270.8869" fill="none" style="stroke:#000000;stroke-width:1.5;"/><line style="stroke:#000000;stroke-width:1.5;" x1="219" x2="471.5586" y1="293.1838" y2="293.1838"/><text fill="#000000" font-family="sans-serif" font-size="14" font-weight="bold" lengthAdjust="spacing" textLength="239.5586" x="223" y="285.882">AdvancedAnalogClock.Domain</text></g><!--entity MainWindow--><g class="entity" data-qualified-name="AdvancedAnalogClock.App.MainWindow" data-source-line="4" id="ent0003"><rect fill="#F1F1F1" height="46.2969" rx="2.5" ry="2.5" style="stroke:#181818;stroke-width:0.5;" width="128.9287" x="296.54" y="78.2969"/><rect fill="#F1F1F1" height="10" style="stroke:#181818;stroke-width:0.5;" width="15" x="405.4687" y="83.2969"/><rect fill="#F1F1F1" height="2" style="stroke:#181818;stroke-width:0.5;" width="4" x="403.4687" y="85.2969"/><rect fill="#F1F1F1" height="2" style="stroke:#181818;stroke-width:0.5;" width="4" x="403.4687" y="89.2969"/><text fill="#000000" font-family="sans-serif" font-size="14" lengthAdjust="spacing" textLength="88.9287" x="311.54" y="111.292">MainWindow</text></g><!--entity ScheduleDetailWindow--><g class="entity" data-qualified-name="AdvancedAnalogClock.App.ScheduleDetailWindow" data-source-line="5" id="ent0004"><rect fill="#F1F1F1" height="46.2969" rx="2.5" ry="2.5" style="stroke:#181818;stroke-width:0.5;" width="201.082" x="22.46" y="184.5969"/><rect fill="#F1F1F1" height="10" style="stroke:#181818;stroke-width:0.5;" width="15" x="203.542" y="189.5969"/><rect fill="#F1F1F1" height="2" style="stroke:#181818;stroke-width:0.5;" width="4" x="201.542" y="191.5969"/><rect fill="#F1F1F1" height="2" style="stroke:#181818;stroke-width:0.5;" width="4" x="201.542" y="195.5969"/><text fill="#000000" font-family="sans-serif" font-size="14" lengthAdjust="spacing" textLength="161.082" x="37.46" y="217.592">ScheduleDetailWindow</text></g><!--entity MainWindowViewModel--><g class="entity" data-qualified-name="AdvancedAnalogClock.App.MainWindowViewModel" data-source-line="6" id="ent0005"><rect fill="#F1F1F1" height="46.2969" rx="2.5" ry="2.5" style="stroke:#181818;stroke-width:0.5;" width="204.4932" x="258.75" y="184.5969"/><rect fill="#F1F1F1" height="10" style="stroke:#181818;stroke-width:0.5;" width="15" x="443.2432" y="189.5969"/><rect fill="#F1F1F1" height="2" style="stroke:#181818;stroke-width:0.5;" width="4" x="441.2432" y="191.5969"/><rect fill="#F1F1F1" height="2" style="stroke:#181818;stroke-width:0.5;" width="4" x="441.2432" y="195.5969"/><text fill="#000000" font-family="sans-serif" font-size="14" lengthAdjust="spacing" textLength="164.4932" x="273.75" y="217.592">MainWindowViewModel</text></g><!--entity OutlookCalendarService--><g class="entity" data-qualified-name="AdvancedAnalogClock.App.OutlookCalendarService" data-source-line="7" id="ent0006"><rect fill="#F1F1F1" height="46.2969" rx="2.5" ry="2.5" style="stroke:#181818;stroke-width:0.5;" width="209.2031" x="498.4" y="184.5969"/><rect fill="#F1F1F1" height="10" style="stroke:#181818;stroke-width:0.5;" width="15" x="687.6031" y="189.5969"/><rect fill="#F1F1F1" height="2" style="stroke:#181818;stroke-width:0.5;" width="4" x="685.6031" y="191.5969"/><rect fill="#F1F1F1" height="2" style="stroke:#181818;stroke-width:0.5;" width="4" x="685.6031" y="195.5969"/><text fill="#000000" font-family="sans-serif" font-size="14" lengthAdjust="spacing" textLength="169.2031" x="513.4" y="217.592">OutlookCalendarService</text></g><!--entity ClockMath--><g class="entity" data-qualified-name="AdvancedAnalogClock.Domain.ClockMath" data-source-line="11" id="ent0008"><rect fill="#F1F1F1" height="46.2969" rx="2.5" ry="2.5" style="stroke:#181818;stroke-width:0.5;" width="113.0557" x="304.47" y="305.8869"/><rect fill="#F1F1F1" height="10" style="stroke:#181818;stroke-width:0.5;" width="15" x="397.5257" y="310.8869"/><rect fill="#F1F1F1" height="2" style="stroke:#181818;stroke-width:0.5;" width="4" x="395.5257" y="312.8869"/><rect fill="#F1F1F1" height="2" style="stroke:#181818;stroke-width:0.5;" width="4" x="395.5257" y="316.8869"/><text fill="#000000" font-family="sans-serif" font-size="14" lengthAdjust="spacing" textLength="73.0557" x="319.47" y="338.882">ClockMath</text></g><!--entity outlook--><g class="entity" data-qualified-name="outlook" data-source-line="14" id="ent0009"><path d="M538.1039,306.2938 C541.4499,299.1914 547.6482,299.6556 551.4553,305.8301 C555.279,299.2548 560.9574,298.7693 564.6572,305.949 C569.5707,299.0675 574.0906,300.0382 578.1055,306.8327 C581.4627,301.1831 586.8541,301.5309 590.5728,306.4044 C593.7004,300.6074 600.0041,299.6228 603.9961,305.402 C607.8608,299.6623 612.6222,299.9495 616.1525,305.7541 C620.6865,299.8103 625.7225,299.4081 629.3325,306.6759 C633.3887,300.0013 638.7625,301.0857 642.7568,306.7431 C646.3434,300.1835 652.5614,298.5988 656.9683,305.9023 C661.3487,300.624 666.7325,300.3482 669.5169,307.5121 C674.0177,310.5913 673.8611,315.2052 669.3166,318.1137 C676.451,321.5136 676.4982,326.2598 670.863,331.1719 C674.6127,334.6398 674.1077,338.2954 669.7771,340.8574 C675.2926,344.6119 674.4263,349.4413 669.0783,352.5463 C666.1682,358.3875 660.1727,359.1297 656.5359,353.3292 C652.3033,359.0786 648.3076,360.8536 643.5171,353.901 C640.0261,361.3988 635.7249,362.6115 629.8566,356.2431 C626.5575,361.9152 620.3961,361.671 616.9074,356.4688 C612.7183,362.5956 608.7959,362.6494 604.6373,356.4385 C600.1401,362.3872 594.1932,361.7341 590.5376,355.4671 C587.0641,361.1264 580.7615,361.3584 576.8715,355.9829 C573.6366,361.0202 568.398,361.5381 565.7569,355.3926 C560.4546,362.3214 555.7293,360.6001 551.7566,354.0151 C547.687,360.324 542.3431,358.1414 539.4009,352.8177 C532.9621,351.9243 530.3515,346.7982 534.8765,341.5159 C527.7468,339.3932 526.6179,335.1902 531.147,329.4606 C527.7645,324.5618 529.3158,320.2594 535.0611,318.6722 C529.6505,313.8401 531.3392,308.1329 538.1039,306.2938" fill="#F1F1F1" style="stroke:#181818;stroke-width:0.5;"/><text fill="#000000" font-family="sans-serif" font-size="14" lengthAdjust="spacing" textLength="116.6963" x="544.65" y="325.732">Outlook Desktop</text><text fill="#000000" font-family="sans-serif" font-size="14" lengthAdjust="spacing" textLength="43.7979" x="544.65" y="342.0289">(COM)</text></g><!--link MainWindow to MainWindowViewModel--><g class="link" data-entity-1="ent0003" data-entity-2="ent0005" data-link-type="dependency" data-source-line="16" id="lnk10"><path d="M361,125.0769 C361,142.5669 361,160.6769 361,178.1569" fill="none" id="MainWindow-to-MainWindowViewModel" style="stroke:#181818;stroke-width:1;"/><polygon fill="#181818" points="361,184.1569,365,175.1569,361,179.1569,357,175.1569,361,184.1569" style="stroke:#181818;stroke-width:1;"/></g><!--link MainWindow to OutlookCalendarService--><g class="link" data-entity-1="ent0003" data-entity-2="ent0006" data-link-type="dependency" data-source-line="17" id="lnk11"><path d="M413.51,125.0769 C454.1,142.5669 504.5199,164.3022 545.0799,181.7822" fill="none" id="MainWindow-to-OutlookCalendarService" style="stroke:#181818;stroke-width:1;"/><polygon fill="#181818" points="550.59,184.1569,543.908,176.9215,545.9983,182.178,540.7418,184.2683,550.59,184.1569" style="stroke:#181818;stroke-width:1;"/></g><!--link MainWindowViewModel to ClockMath--><g class="link" data-entity-1="ent0005" data-entity-2="ent0008" data-link-type="dependency" data-source-line="18" id="lnk12"><path d="M361,231.1769 C361,252.5069 361,278.4069 361,299.6969" fill="none" id="MainWindowViewModel-to-ClockMath" style="stroke:#181818;stroke-width:1;"/><polygon fill="#181818" points="361,305.6969,365,296.6969,361,300.6969,357,296.6969,361,305.6969" style="stroke:#181818;stroke-width:1;"/></g><!--link OutlookCalendarService to outlook--><g class="link" data-entity-1="ent0006" data-entity-2="ent0009" data-link-type="dependency" data-source-line="19" id="lnk13"><path d="M603,231.1769 C603,249.9469 603,270.8869 603,291.5969" fill="none" id="OutlookCalendarService-to-outlook" style="stroke:#181818;stroke-width:1;"/><polygon fill="#181818" points="603,297.5969,607,288.5969,603,292.5969,599,288.5969,603,297.5969" style="stroke:#181818;stroke-width:1;"/></g><!--link MainWindow to ScheduleDetailWindow--><g class="link" data-entity-1="ent0003" data-entity-2="ent0004" data-link-type="dependency" data-source-line="20" id="lnk14"><path d="M309.36,125.0769 C269.44,142.5669 219.9357,164.2692 180.0357,181.7492" fill="none" id="MainWindow-to-ScheduleDetailWindow" style="stroke:#181818;stroke-width:1;"/><polygon fill="#181818" points="174.54,184.1569,184.3887,184.2092,179.1198,182.1505,181.1785,176.8816,174.54,184.1569" style="stroke:#181818;stroke-width:1;"/></g><?plantuml-src XP112u9048Nl-oi6JtMedn28NgM3K8VgCEmEjZZkBBeQ4VttIes4aexpvhqt7nDiO8BysWIg897AYoCN8BLOr5WfvL6NM114iUdGQJAnGvOYOT7bElO-Wfi2E6HetTuw8vVJQyprcKpBb590ovF5nxUpTCd44FVwjWqiKYR8v0pMETMTrNHIzpy4gLJFnX6Ybp8CvpwdMLe3qTWCAJLb47zqYsIRBIF01cHOAJN5XzLgCyFvRPl3_faV8XF8kNXlVCDz7_tvt0S0?></g></svg>