<?plantuml 1.2026.1?><svg xmlns="http://www.w3.org/2000/svg" xmlns:xlink="http://www.w3.org/1999/xlink" contentStyleType="text/css" data-diagram-type="ACTIVITY" height="785px" preserveAspectRatio="none" style="width:381px;height:785px;background:#FFFFFF;" version="1.1" viewBox="0 0 381 785" width="381px" zoomAndPan="magnify"><title>Context Menu Flow</title><defs/><g><g class="title" data-source-line="1"><text fill="#000000" font-family="sans-serif" font-size="14" font-weight="bold" lengthAdjust="spacing" textLength="151.792" x="113.3765" y="32.9951">Context Menu Flow</text></g><ellipse cx="179.2915" cy="57.2969" fill="#222222" rx="10" ry="10" style="stroke:#222222;stroke-width:1;"/><rect fill="#F1F1F1" height="33.9688" rx="12.5" ry="12.5" style="stroke:#181818;stroke-width:0.5;" width="82.2266" x="138.1782" y="87.2969"/><text fill="#000000" font-family="sans-serif" font-size="12" lengthAdjust="spacing" textLength="62.2266" x="148.1782" y="108.4355">Right click</text><rect fill="#F1F1F1" height="33.9688" rx="12.5" ry="12.5" style="stroke:#181818;stroke-width:0.5;" width="224.9609" x="66.811" y="189.668"/><text fill="#000000" font-family="sans-serif" font-size="12" lengthAdjust="spacing" textLength="204.9609" x="76.811" y="210.8066">Read today's events from Outlook</text><polygon fill="#F1F1F1" points="129.8774,243.6367,228.7056,243.6367,240.7056,255.6367,228.7056,267.6367,129.8774,267.6367,117.8774,255.6367,129.8774,243.6367" style="stroke:#181818;stroke-width:0.5;"/><text fill="#000000" font-family="sans-serif" font-size="11" lengthAdjust="spacing" textLength="98.8281" x="129.8774" y="259.4448">Fetch succeeded?</text><text fill="#000000" font-family="sans-serif" font-size="11" lengthAdjust="spacing" textLength="19.0083" x="98.8691" y="253.0425">yes</text><text fill="#000000" font-family="sans-serif" font-size="11" lengthAdjust="spacing" textLength="13.7017" x="240.7056" y="253.0425">no</text><rect fill="#F1F1F1" height="33.9688" rx="12.5" ry="12.5" style="stroke:#181818;stroke-width:0.5;" width="142.4902" x="20.4102" y="277.6367"/><text fill="#000000" font-family="sans-serif" font-size="12" lengthAdjust="spacing" textLength="122.4902" x="30.4102" y="298.7754">Update schedule list</text><rect fill="#F1F1F1" height="33.9688" rx="12.5" ry="12.5" style="stroke:#181818;stroke-width:0.5;" width="161.3105" x="11" y="331.6055"/><text fill="#000000" font-family="sans-serif" font-size="12" lengthAdjust="spacing" textLength="141.3105" x="21" y="352.7441">Update schedule bands</text><rect fill="#F1F1F1" height="33.9688" rx="12.5" ry="12.5" style="stroke:#181818;stroke-width:0.5;" width="143.4629" x="195.1963" y="277.6367"/><text fill="#000000" font-family="sans-serif" font-size="12" lengthAdjust="spacing" textLength="123.4629" x="205.1963" y="298.7754">Show error message</text><rect fill="#F1F1F1" height="33.9688" rx="12.5" ry="12.5" style="stroke:#181818;stroke-width:0.5;" width="149.2344" x="192.3105" y="331.6055"/><text fill="#000000" font-family="sans-serif" font-size="12" lengthAdjust="spacing" textLength="129.2344" x="202.3105" y="352.7441">Clear schedule bands</text><polygon fill="#F1F1F1" points="179.2915,371.5742,191.2915,383.5742,179.2915,395.5742,167.2915,383.5742,179.2915,371.5742" style="stroke:#181818;stroke-width:0.5;"/><polygon fill="#F1F1F1" points="134.1367,141.2656,224.4463,141.2656,236.4463,153.2656,224.4463,165.2656,134.1367,165.2656,122.1367,153.2656,134.1367,141.2656" style="stroke:#181818;stroke-width:0.5;"/><text fill="#000000" font-family="sans-serif" font-size="11" lengthAdjust="spacing" textLength="19.0083" x="183.2915" y="175.4761">yes</text><text fill="#000000" font-family="sans-serif" font-size="11" lengthAdjust="spacing" textLength="90.3096" x="134.1367" y="157.0737">Fetch Schedule?</text><polygon fill="#F1F1F1" points="179.2915,415.5742,191.2915,427.5742,179.2915,439.5742,167.2915,427.5742,179.2915,415.5742" style="stroke:#181818;stroke-width:0.5;"/><rect fill="#F1F1F1" height="33.9688" rx="12.5" ry="12.5" style="stroke:#181818;stroke-width:0.5;" width="250.0391" x="54.272" y="507.9766"/><text fill="#000000" font-family="sans-serif" font-size="12" lengthAdjust="spacing" textLength="230.0391" x="64.272" y="529.1152">Show timed events and all-day events</text><polygon fill="#F1F1F1" points="123.2979,459.5742,235.2852,459.5742,247.2852,471.5742,235.2852,483.5742,123.2979,483.5742,111.2979,471.5742,123.2979,459.5742" style="stroke:#181818;stroke-width:0.5;"/><text fill="#000000" font-family="sans-serif" font-size="11" lengthAdjust="spacing" textLength="19.0083" x="183.2915" y="493.7847">yes</text><text fill="#000000" font-family="sans-serif" font-size="11" lengthAdjust="spacing" textLength="111.9873" x="123.2979" y="475.3823">Open Schedule List?</text><polygon fill="#F1F1F1" points="179.2915,561.9453,191.2915,573.9453,179.2915,585.9453,167.2915,573.9453,179.2915,561.9453" style="stroke:#181818;stroke-width:0.5;"/><rect fill="#F1F1F1" height="33.9688" rx="12.5" ry="12.5" style="stroke:#181818;stroke-width:0.5;" width="196.5254" x="81.0288" y="654.3477"/><text fill="#000000" font-family="sans-serif" font-size="12" lengthAdjust="spacing" textLength="176.5254" x="91.0288" y="675.4863">Open schedule detail window</text><polygon fill="#F1F1F1" points="121.2837,605.9453,237.2993,605.9453,249.2993,617.9453,237.2993,629.9453,121.2837,629.9453,109.2837,617.9453,121.2837,605.9453" style="stroke:#181818;stroke-width:0.5;"/><text fill="#000000" font-family="sans-serif" font-size="11" lengthAdjust="spacing" textLength="19.0083" x="183.2915" y="640.1558">yes</text><text fill="#000000" font-family="sans-serif" font-size="11" lengthAdjust="spacing" textLength="116.0156" x="121.2837" y="621.7534">Click schedule band?</text><polygon fill="#F1F1F1" points="179.2915,708.3164,191.2915,720.3164,179.2915,732.3164,167.2915,720.3164,179.2915,708.3164" style="stroke:#181818;stroke-width:0.5;"/><ellipse cx="179.2915" cy="763.3164" fill="none" rx="11" ry="11" style="stroke:#222222;stroke-width:1;"/><ellipse cx="179.2915" cy="763.3164" fill="#222222" rx="6" ry="6" style="stroke:#222222;stroke-width:1;"/><line style="stroke:#181818;stroke-width:1;" x1="179.2915" x2="179.2915" y1="67.2969" y2="87.2969"/><polygon fill="#181818" points="175.2915,77.2969,179.2915,87.2969,183.2915,77.2969,179.2915,81.2969" style="stroke:#181818;stroke-width:1;"/><line style="stroke:#181818;stroke-width:1;" x1="91.6553" x2="91.6553" y1="311.6055" y2="331.6055"/><polygon fill="#181818" points="87.6553,321.6055,91.6553,331.6055,95.6553,321.6055,91.6553,325.6055" style="stroke:#181818;stroke-width:1;"/><line style="stroke:#181818;stroke-width:1;" x1="266.9277" x2="266.9277" y1="311.6055" y2="331.6055"/><polygon fill="#181818" points="262.9277,321.6055,266.9277,331.6055,270.9277,321.6055,266.9277,325.6055" style="stroke:#181818;stroke-width:1;"/><line style="stroke:#181818;stroke-width:1;" x1="117.8774" x2="91.6553" y1="255.6367" y2="255.6367"/><line style="stroke:#181818;stroke-width:1;" x1="91.6553" x2="91.6553" y1="255.6367" y2="277.6367"/><polygon fill="#181818" points="87.6553,267.6367,91.6553,277.6367,95.6553,267.6367,91.6553,271.6367" style="stroke:#181818;stroke-width:1;"/><line style="stroke:#181818;stroke-width:1;" x1="240.7056" x2="266.9277" y1="255.6367" y2="255.6367"/><line style="stroke:#181818;stroke-width:1;" x1="266.9277" x2="266.9277" y1="255.6367" y2="277.6367"/><polygon fill="#181818" points="262.9277,267.6367,266.9277,277.6367,270.9277,267.6367,266.9277,271.6367" style="stroke:#181818;stroke-width:1;"/><line style="stroke:#181818;stroke-width:1;" x1="91.6553" x2="91.6553" y1="365.5742" y2="383.5742"/><line style="stroke:#181818;stroke-width:1;" x1="91.6553" x2="167.2915" y1="383.5742" y2="383.5742"/><polygon fill="#181818" points="157.2915,379.5742,167.2915,383.5742,157.2915,387.5742,161.2915,383.5742" style="stroke:#181818;stroke-width:1;"/><line style="stroke:#181818;stroke-width:1;" x1="266.9277" x2="266.9277" y1="365.5742" y2="383.5742"/><line style="stroke:#181818;stroke-width:1;" x1="266.9277" x2="191.2915" y1="383.5742" y2="383.5742"/><polygon fill="#181818" points="201.2915,379.5742,191.2915,383.5742,201.2915,387.5742,197.2915,383.5742" style="stroke:#181818;stroke-width:1;"/><line style="stroke:#181818;stroke-width:1;" x1="179.2915" x2="179.2915" y1="223.6367" y2="243.6367"/><polygon fill="#181818" points="175.2915,233.6367,179.2915,243.6367,183.2915,233.6367,179.2915,237.6367" style="stroke:#181818;stroke-width:1;"/><line style="stroke:#181818;stroke-width:1;" x1="179.2915" x2="179.2915" y1="165.2656" y2="189.668"/><polygon fill="#181818" points="175.2915,179.668,179.2915,189.668,183.2915,179.668,179.2915,183.668" style="stroke:#181818;stroke-width:1;"/><line style="stroke:#181818;stroke-width:1;" x1="236.4463" x2="355.5449" y1="153.2656" y2="153.2656"/><polygon fill="#181818" points="351.5449,282.6211,355.5449,292.6211,359.5449,282.6211,355.5449,286.6211" style="stroke:#181818;stroke-width:1;"/><line style="stroke:#181818;stroke-width:1;" x1="355.5449" x2="355.5449" y1="153.2656" y2="427.5742"/><line style="stroke:#181818;stroke-width:1;" x1="355.5449" x2="191.2915" y1="427.5742" y2="427.5742"/><polygon fill="#181818" points="201.2915,423.5742,191.2915,427.5742,201.2915,431.5742,197.2915,427.5742" style="stroke:#181818;stroke-width:1;"/><line style="stroke:#181818;stroke-width:1;" x1="179.2915" x2="179.2915" y1="395.5742" y2="415.5742"/><polygon fill="#181818" points="175.2915,405.5742,179.2915,415.5742,183.2915,405.5742,179.2915,409.5742" style="stroke:#181818;stroke-width:1;"/><line style="stroke:#181818;stroke-width:1;" x1="179.2915" x2="179.2915" y1="121.2656" y2="141.2656"/><polygon fill="#181818" points="175.2915,131.2656,179.2915,141.2656,183.2915,131.2656,179.2915,135.2656" style="stroke:#181818;stroke-width:1;"/><line style="stroke:#181818;stroke-width:1;" x1="179.2915" x2="179.2915" y1="483.5742" y2="507.9766"/><polygon fill="#181818" points="175.2915,497.9766,179.2915,507.9766,183.2915,497.9766,179.2915,501.9766" style="stroke:#181818;stroke-width:1;"/><line style="stroke:#181818;stroke-width:1;" x1="247.2852" x2="314.311" y1="471.5742" y2="471.5742"/><polygon fill="#181818" points="310.311,514.9609,314.311,524.9609,318.311,514.9609,314.311,518.9609" style="stroke:#181818;stroke-width:1;"/><line style="stroke:#181818;stroke-width:1;" x1="314.311" x2="314.311" y1="471.5742" y2="573.9453"/><line style="stroke:#181818;stroke-width:1;" x1="314.311" x2="191.2915" y1="573.9453" y2="573.9453"/><polygon fill="#181818" points="201.2915,569.9453,191.2915,573.9453,201.2915,577.9453,197.2915,573.9453" style="stroke:#181818;stroke-width:1;"/><line style="stroke:#181818;stroke-width:1;" x1="179.2915" x2="179.2915" y1="541.9453" y2="561.9453"/><polygon fill="#181818" points="175.2915,551.9453,179.2915,561.9453,183.2915,551.9453,179.2915,555.9453" style="stroke:#181818;stroke-width:1;"/><line style="stroke:#181818;stroke-width:1;" x1="179.2915" x2="179.2915" y1="439.5742" y2="459.5742"/><polygon fill="#181818" points="175.2915,449.5742,179.2915,459.5742,183.2915,449.5742,179.2915,453.5742" style="stroke:#181818;stroke-width:1;"/><line style="stroke:#181818;stroke-width:1;" x1="179.2915" x2="179.2915" y1="629.9453" y2="654.3477"/><polygon fill="#181818" points="175.2915,644.3477,179.2915,654.3477,183.2915,644.3477,179.2915,648.3477" style="stroke:#181818;stroke-width:1;"/><line style="stroke:#181818;stroke-width:1;" x1="249.2993" x2="287.5542" y1="617.9453" y2="617.9453"/><polygon fill="#181818" points="283.5542,661.332,287.5542,671.332,291.5542,661.332,287.5542,665.332" style="stroke:#181818;stroke-width:1;"/><line style="stroke:#181818;stroke-width:1;" x1="287.5542" x2="287.5542" y1="617.9453" y2="720.3164"/><line style="stroke:#181818;stroke-width:1;" x1="287.5542" x2="191.2915" y1="720.3164" y2="720.3164"/><polygon fill="#181818" points="201.2915,716.3164,191.2915,720.3164,201.2915,724.3164,197.2915,720.3164" style="stroke:#181818;stroke-width:1;"/><line style="stroke:#181818;stroke-width:1;" x1="179.2915" x2="179.2915" y1="688.3164" y2="708.3164"/><polygon fill="#181818" points="175.2915,698.3164,179.2915,708.3164,183.2915,698.3164,179.2915,702.3164" style="stroke:#181818;stroke-width:1;"/><line style="stroke:#181818;stroke-width:1;" x1="179.2915" x2="179.2915" y1="585.9453" y2="605.9453"/><polygon fill="#181818" points="175.2915,595.9453,179.2915,605.9453,183.2915,595.9453,179.2915,599.9453" style="stroke:#181818;stroke-width:1;"/><line style="stroke:#181818;stroke-width:1;" x1="179.2915" x2="179.2915" y1="732.3164" y2="752.3164"/><polygon fill="#181818" points="175.2915,742.3164,179.2915,752.3164,183.2915,742.3164,179.2915,746.3164" style="stroke:#181818;stroke-width:1;"/><?plantuml-src RP0xRiCm44HxdMAwo4KkO1Kf1BXAOC163i2G8ui8JGhSLHJVFhGYEn-xsM8_RsPMlGQYJL7vgNXX7B49QQegKPErMk_yeLVOuErxK_aEzOPgU-njJpS6FgsWFIFg4sLL0UiTZOCcPquF0dumgg3BwOZjg26b0W5-C39QIpgw_vn2UXsSKK8M9GGlsjmVlPdev3nZ4AAEQK7i-pI1EQUC8qNCWGkW3JJvtdrqlgk-wvnsEnHJbx1uBXPk4iyYwezqbxo51XF2Otd2qcf-CzlpC_-Atq1dtUkAeneVCFdeqdHbYQRX2m00?></g></svg>