<?plantuml 1.2026.1?><svg xmlns="http://www.w3.org/2000/svg" xmlns:xlink="http://www.w3.org/1999/xlink" contentStyleType="text/css" data-diagram-type="CLASS" height="543px" preserveAspectRatio="none" style="width:879px;height:543px;background:#FFFFFF;" version="1.1" viewBox="0 0 879 543" width="879px" zoomAndPan="magnify"><title>Core Class Relationship Diagram</title><defs/><g><g class="title" data-source-line="1"><text fill="#000000" font-family="sans-serif" font-size="14" font-weight="bold" lengthAdjust="spacing" textLength="257.6465" x="303.7228" y="22.9951">Core Class Relationship Diagram</text></g><!--class MainWindow--><g class="entity" data-qualified-name="MainWindow" data-source-line="3" id="ent0002"><rect fill="#F1F1F1" height="113.1875" rx="2.5" ry="2.5" style="stroke:#181818;stroke-width:0.5;" width="245.3721" x="345.86" y="44.2969"/><ellipse cx="419.8317" cy="60.2969" fill="#ADD1B2" rx="11" ry="11" style="stroke:#181818;stroke-width:1;"/><path d="M422.8004,65.9375 Q422.2223,66.2344 421.5817,66.375 Q420.9411,66.5313 420.2379,66.5313 Q417.7379,66.5313 416.4098,64.8906 Q415.0973,63.2344 415.0973,60.1094 Q415.0973,56.9844 416.4098,55.3281 Q417.7379,53.6719 420.2379,53.6719 Q420.9411,53.6719 421.5817,53.8281 Q422.2379,53.9844 422.8004,54.2813 L422.8004,57 Q422.1754,56.4219 421.5817,56.1563 Q420.9879,55.875 420.3629,55.875 Q419.0192,55.875 418.3317,56.9531 Q417.6442,58.0156 417.6442,60.1094 Q417.6442,62.2031 418.3317,63.2813 Q419.0192,64.3438 420.3629,64.3438 Q420.9879,64.3438 421.5817,64.0781 Q422.1754,63.7969 422.8004,63.2188 L422.8004,65.9375 Z " fill="#000000"/><text fill="#000000" font-family="sans-serif" font-size="14" lengthAdjust="spacing" textLength="88.9287" x="440.3317" y="65.1436">MainWindow</text><line style="stroke:#181818;stroke-width:0.5;" x1="346.86" x2="590.2321" y1="76.2969" y2="76.2969"/><line style="stroke:#181818;stroke-width:0.5;" x1="346.86" x2="590.2321" y1="84.2969" y2="84.2969"/><g data-visibility-modifier="PUBLIC_METHOD"><ellipse cx="356.86" cy="97.9453" fill="#84BE84" rx="3" ry="3" style="stroke:#038048;stroke-width:1;"/></g><text fill="#000000" font-family="sans-serif" font-size="14" lengthAdjust="spacing" textLength="219.3721" x="365.86" y="101.292">OnRefreshCalendarMenuClick()</text><g data-visibility-modifier="PUBLIC_METHOD"><ellipse cx="356.86" cy="114.2422" fill="#84BE84" rx="3" ry="3" style="stroke:#038048;stroke-width:1;"/></g><text fill="#000000" font-family="sans-serif" font-size="14" lengthAdjust="spacing" textLength="165.5664" x="365.86" y="117.5889">OnCalendarMenuClick()</text><g data-visibility-modifier="PUBLIC_METHOD"><ellipse cx="356.86" cy="130.5391" fill="#84BE84" rx="3" ry="3" style="stroke:#038048;stroke-width:1;"/></g><text fill="#000000" font-family="sans-serif" font-size="14" lengthAdjust="spacing" textLength="173.1885" x="365.86" y="133.8857">OnScheduleRangeClick()</text><g data-visibility-modifier="PRIVATE_METHOD"><rect fill="#F24D5C" height="6" style="stroke:#C82930;stroke-width:1;" width="6" x="353.86" y="143.8359"/></g><text fill="#000000" font-family="sans-serif" font-size="14" lengthAdjust="spacing" textLength="154.3281" x="365.86" y="150.1826">FetchCalendarAsync()</text></g><!--class MainWindowViewModel--><g class="entity" data-qualified-name="MainWindowViewModel" data-source-line="10" id="ent0003"><rect fill="#F1F1F1" height="96.8906" rx="2.5" ry="2.5" style="stroke:#181818;stroke-width:0.5;" width="251.1006" x="7" y="217.4869"/><ellipse cx="46.5733" cy="233.4869" fill="#ADD1B2" rx="11" ry="11" style="stroke:#181818;stroke-width:1;"/><path d="M49.5421,239.1275 Q48.964,239.4244 48.3233,239.565 Q47.6827,239.7213 46.9796,239.7213 Q44.4796,239.7213 43.1515,238.0806 Q41.839,236.4244 41.839,233.2994 Q41.839,230.1744 43.1515,228.5181 Q44.4796,226.8619 46.9796,226.8619 Q47.6827,226.8619 48.3233,227.0181 Q48.9796,227.1744 49.5421,227.4713 L49.5421,230.19 Q48.9171,229.6119 48.3233,229.3463 Q47.7296,229.065 47.1046,229.065 Q45.7608,229.065 45.0733,230.1431 Q44.3858,231.2056 44.3858,233.2994 Q44.3858,235.3931 45.0733,236.4713 Q45.7608,237.5338 47.1046,237.5338 Q47.7296,237.5338 48.3233,237.2681 Q48.9171,236.9869 49.5421,236.4088 L49.5421,239.1275 Z " fill="#000000"/><text fill="#000000" font-family="sans-serif" font-size="14" lengthAdjust="spacing" textLength="164.4932" x="66.0341" y="238.3336">MainWindowViewModel</text><line style="stroke:#181818;stroke-width:0.5;" x1="8" x2="257.1006" y1="249.4869" y2="249.4869"/><line style="stroke:#181818;stroke-width:0.5;" x1="8" x2="257.1006" y1="257.4869" y2="257.4869"/><g data-visibility-modifier="PUBLIC_METHOD"><ellipse cx="18" cy="271.1353" fill="#84BE84" rx="3" ry="3" style="stroke:#038048;stroke-width:1;"/></g><text fill="#000000" font-family="sans-serif" font-size="14" lengthAdjust="spacing" textLength="225.1006" x="27" y="274.482">UpdateScheduleRanges(events)</text><g data-visibility-modifier="PRIVATE_METHOD"><rect fill="#F24D5C" height="6" style="stroke:#C82930;stroke-width:1;" width="6" x="15" y="284.4322"/></g><text fill="#000000" font-family="sans-serif" font-size="14" lengthAdjust="spacing" textLength="136.8213" x="27" y="290.7789">AssignLanes(items)</text><g data-visibility-modifier="PRIVATE_METHOD"><rect fill="#F24D5C" height="6" style="stroke:#C82930;stroke-width:1;" width="6" x="15" y="300.7291"/></g><text fill="#000000" font-family="sans-serif" font-size="14" lengthAdjust="spacing" textLength="214.1973" x="27" y="307.0757">BuildSegments(start,end,lane)</text></g><!--class OutlookCalendarService--><g class="entity" data-qualified-name="OutlookCalendarService" data-source-line="16" id="ent0004"><rect fill="#F1F1F1" height="96.8906" rx="2.5" ry="2.5" style="stroke:#181818;stroke-width:0.5;" width="350.9053" x="293.1" y="217.4869"/><ellipse cx="379.7011" cy="233.4869" fill="#ADD1B2" rx="11" ry="11" style="stroke:#181818;stroke-width:1;"/><path d="M382.6698,239.1275 Q382.0917,239.4244 381.4511,239.565 Q380.8104,239.7213 380.1073,239.7213 Q377.6073,239.7213 376.2792,238.0806 Q374.9667,236.4244 374.9667,233.2994 Q374.9667,230.1744 376.2792,228.5181 Q377.6073,226.8619 380.1073,226.8619 Q380.8104,226.8619 381.4511,227.0181 Q382.1073,227.1744 382.6698,227.4713 L382.6698,230.19 Q382.0448,229.6119 381.4511,229.3463 Q380.8573,229.065 380.2323,229.065 Q378.8886,229.065 378.2011,230.1431 Q377.5136,231.2056 377.5136,233.2994 Q377.5136,235.3931 378.2011,236.4713 Q378.8886,237.5338 380.2323,237.5338 Q380.8573,237.5338 381.4511,237.2681 Q382.0448,236.9869 382.6698,236.4088 L382.6698,239.1275 Z " fill="#000000"/><text fill="#000000" font-family="sans-serif" font-size="14" lengthAdjust="spacing" textLength="169.2031" x="400.2011" y="238.3336">OutlookCalendarService</text><line style="stroke:#181818;stroke-width:0.5;" x1="294.1" x2="643.0053" y1="249.4869" y2="249.4869"/><line style="stroke:#181818;stroke-width:0.5;" x1="294.1" x2="643.0053" y1="257.4869" y2="257.4869"/><g data-visibility-modifier="PUBLIC_METHOD"><ellipse cx="304.1" cy="271.1353" fill="#84BE84" rx="3" ry="3" style="stroke:#038048;stroke-width:1;"/></g><text fill="#000000" font-family="sans-serif" font-size="14" lengthAdjust="spacing" textLength="207.5186" x="313.1" y="274.482">GetTodayEventsAsync(token)</text><g data-visibility-modifier="PRIVATE_METHOD"><rect fill="#F24D5C" height="6" style="stroke:#C82930;stroke-width:1;" width="6" x="301.1" y="284.4322"/></g><text fill="#000000" font-family="sans-serif" font-size="14" lengthAdjust="spacing" textLength="324.9053" x="313.1" y="290.7789">ReadTodayEventsFromDesktopOutlook(token)</text><g data-visibility-modifier="PRIVATE_METHOD"><rect fill="#F24D5C" height="6" style="stroke:#C82930;stroke-width:1;" width="6" x="301.1" y="300.7291"/></g><text fill="#000000" font-family="sans-serif" font-size="14" lengthAdjust="spacing" textLength="148.2168" x="313.1" y="307.0757">TryFindFirstUrl(body)</text></g><!--class ScheduleDetailWindow--><g class="entity" data-qualified-name="ScheduleDetailWindow" data-source-line="22" id="ent0005"><rect fill="#F1F1F1" height="80.5938" rx="2.5" ry="2.5" style="stroke:#181818;stroke-width:0.5;" width="193.082" x="679.01" y="225.6369"/><ellipse cx="694.01" cy="241.6369" fill="#ADD1B2" rx="11" ry="11" style="stroke:#181818;stroke-width:1;"/><path d="M696.9788,247.2775 Q696.4006,247.5744 695.76,247.715 Q695.1194,247.8713 694.4163,247.8713 Q691.9163,247.8713 690.5881,246.2306 Q689.2756,244.5744 689.2756,241.4494 Q689.2756,238.3244 690.5881,236.6681 Q691.9163,235.0119 694.4163,235.0119 Q695.1194,235.0119 695.76,235.1681 Q696.4163,235.3244 696.9788,235.6213 L696.9788,238.34 Q696.3538,237.7619 695.76,237.4963 Q695.1663,237.215 694.5413,237.215 Q693.1975,237.215 692.51,238.2931 Q691.8225,239.3556 691.8225,241.4494 Q691.8225,243.5431 692.51,244.6213 Q693.1975,245.6838 694.5413,245.6838 Q695.1663,245.6838 695.76,245.4181 Q696.3538,245.1369 696.9788,244.5588 L696.9788,247.2775 Z " fill="#000000"/><text fill="#000000" font-family="sans-serif" font-size="14" lengthAdjust="spacing" textLength="161.082" x="708.01" y="246.4836">ScheduleDetailWindow</text><line style="stroke:#181818;stroke-width:0.5;" x1="680.01" x2="871.092" y1="257.6369" y2="257.6369"/><line style="stroke:#181818;stroke-width:0.5;" x1="680.01" x2="871.092" y1="265.6369" y2="265.6369"/><g data-visibility-modifier="PUBLIC_METHOD"><ellipse cx="690.01" cy="279.2853" fill="#84BE84" rx="3" ry="3" style="stroke:#038048;stroke-width:1;"/></g><text fill="#000000" font-family="sans-serif" font-size="14" lengthAdjust="spacing" textLength="155.6953" x="699.01" y="282.632">OnOpenJoinLinkClick()</text><g data-visibility-modifier="PUBLIC_METHOD"><ellipse cx="690.01" cy="295.5822" fill="#84BE84" rx="3" ry="3" style="stroke:#038048;stroke-width:1;"/></g><text fill="#000000" font-family="sans-serif" font-size="14" lengthAdjust="spacing" textLength="102.3135" x="699.01" y="298.9289">OnCloseClick()</text></g><!--class CalendarEventItem--><g class="entity" data-qualified-name="CalendarEventItem" data-source-line="27" id="ent0006"><rect fill="#F1F1F1" height="162.0781" rx="2.5" ry="2.5" style="stroke:#181818;stroke-width:0.5;" width="166.9277" x="385.09" y="374.3769"/><ellipse cx="400.09" cy="390.3769" fill="#ADD1B2" rx="11" ry="11" style="stroke:#181818;stroke-width:1;"/><path d="M403.0588,396.0175 Q402.4806,396.3144 401.84,396.455 Q401.1994,396.6113 400.4963,396.6113 Q397.9963,396.6113 396.6681,394.9706 Q395.3556,393.3144 395.3556,390.1894 Q395.3556,387.0644 396.6681,385.4081 Q397.9963,383.7519 400.4963,383.7519 Q401.1994,383.7519 401.84,383.9081 Q402.4963,384.0644 403.0588,384.3613 L403.0588,387.08 Q402.4338,386.5019 401.84,386.2363 Q401.2463,385.955 400.6213,385.955 Q399.2775,385.955 398.59,387.0331 Q397.9025,388.0956 397.9025,390.1894 Q397.9025,392.2831 398.59,393.3613 Q399.2775,394.4238 400.6213,394.4238 Q401.2463,394.4238 401.84,394.1581 Q402.4338,393.8769 403.0588,393.2988 L403.0588,396.0175 Z " fill="#000000"/><text fill="#000000" font-family="sans-serif" font-size="14" lengthAdjust="spacing" textLength="134.9277" x="414.09" y="395.2236">CalendarEventItem</text><line style="stroke:#181818;stroke-width:0.5;" x1="386.09" x2="551.0177" y1="406.3769" y2="406.3769"/><g data-visibility-modifier="PUBLIC_FIELD"><ellipse cx="396.09" cy="420.0253" fill="none" rx="3" ry="3" style="stroke:#038048;stroke-width:1;"/></g><text fill="#000000" font-family="sans-serif" font-size="14" lengthAdjust="spacing" textLength="52.3359" x="405.09" y="423.372">Subject</text><g data-visibility-modifier="PUBLIC_FIELD"><ellipse cx="396.09" cy="436.3222" fill="none" rx="3" ry="3" style="stroke:#038048;stroke-width:1;"/></g><text fill="#000000" font-family="sans-serif" font-size="14" lengthAdjust="spacing" textLength="70.7314" x="405.09" y="439.6689">StartLocal</text><g data-visibility-modifier="PUBLIC_FIELD"><ellipse cx="396.09" cy="452.6191" fill="none" rx="3" ry="3" style="stroke:#038048;stroke-width:1;"/></g><text fill="#000000" font-family="sans-serif" font-size="14" lengthAdjust="spacing" textLength="63.1367" x="405.09" y="455.9657">EndLocal</text><g data-visibility-modifier="PUBLIC_FIELD"><ellipse cx="396.09" cy="468.9159" fill="none" rx="3" ry="3" style="stroke:#038048;stroke-width:1;"/></g><text fill="#000000" font-family="sans-serif" font-size="14" lengthAdjust="spacing" textLength="56.4238" x="405.09" y="472.2626">IsAllDay</text><g data-visibility-modifier="PUBLIC_FIELD"><ellipse cx="396.09" cy="485.2128" fill="none" rx="3" ry="3" style="stroke:#038048;stroke-width:1;"/></g><text fill="#000000" font-family="sans-serif" font-size="14" lengthAdjust="spacing" textLength="59.459" x="405.09" y="488.5595">Location</text><g data-visibility-modifier="PUBLIC_FIELD"><ellipse cx="396.09" cy="501.5097" fill="none" rx="3" ry="3" style="stroke:#038048;stroke-width:1;"/></g><text fill="#000000" font-family="sans-serif" font-size="14" lengthAdjust="spacing" textLength="90.3916" x="405.09" y="504.8564">BodyPreview</text><g data-visibility-modifier="PUBLIC_FIELD"><ellipse cx="396.09" cy="517.8066" fill="none" rx="3" ry="3" style="stroke:#038048;stroke-width:1;"/></g><text fill="#000000" font-family="sans-serif" font-size="14" lengthAdjust="spacing" textLength="45.3496" x="405.09" y="521.1532">JoinUrl</text><line style="stroke:#181818;stroke-width:0.5;" x1="386.09" x2="551.0177" y1="528.455" y2="528.455"/></g><!--link MainWindow to MainWindowViewModel--><g class="link" data-entity-1="ent0002" data-entity-2="ent0003" data-link-type="dependency" data-source-line="37" id="lnk7"><path codeLine="37" d="M353.39,157.7769 C313.68,177.0369 274.9983,195.8181 236.7183,214.3881" fill="none" id="MainWindow-to-MainWindowViewModel" style="stroke:#181818;stroke-width:1;"/><polygon fill="#181818" points="231.32,217.0069,241.1634,216.6776,235.8186,214.8246,237.6716,209.4798,231.32,217.0069" style="stroke:#181818;stroke-width:1;"/></g><!--link MainWindow to OutlookCalendarService--><g class="link" data-entity-1="ent0002" data-entity-2="ent0004" data-link-type="dependency" data-source-line="38" id="lnk8"><path codeLine="38" d="M468.55,157.5469 C468.55,176.9169 468.55,192.4669 468.55,211.1469" fill="none" id="MainWindow-to-OutlookCalendarService" style="stroke:#181818;stroke-width:1;"/><polygon fill="#181818" points="468.55,217.1469,472.55,208.1469,468.55,212.1469,464.55,208.1469,468.55,217.1469" style="stroke:#181818;stroke-width:1;"/></g><!--link MainWindow to ScheduleDetailWindow--><g class="link" data-entity-1="ent0002" data-entity-2="ent0005" data-link-type="dependency" data-source-line="39" id="lnk9"><path codeLine="39" d="M573.77,157.7769 C615.6,179.9869 657.4611,202.2223 695.6611,222.5123" fill="none" id="MainWindow-to-ScheduleDetailWindow" style="stroke:#181818;stroke-width:1;"/><polygon fill="#181818" points="700.96,225.3269,694.888,217.5725,696.5442,222.9814,691.1353,224.6377,700.96,225.3269" style="stroke:#181818;stroke-width:1;"/></g><!--link MainWindowViewModel to CalendarEventItem--><g class="link" data-entity-1="ent0003" data-entity-2="ent0006" data-link-type="dependency" data-source-line="40" id="lnk10"><path codeLine="40" d="M218.21,314.7269 C269.34,343.2569 328.7609,376.4125 379.5509,404.7625" fill="none" id="MainWindowViewModel-to-CalendarEventItem" style="stroke:#181818;stroke-width:1;"/><polygon fill="#181818" points="384.79,407.6869,378.8809,399.8076,380.4241,405.2499,374.9818,406.7931,384.79,407.6869" style="stroke:#181818;stroke-width:1;"/></g><!--link OutlookCalendarService to CalendarEventItem--><g class="link" data-entity-1="ent0004" data-entity-2="ent0006" data-link-type="dependency" data-source-line="41" id="lnk11"><path codeLine="41" d="M468.55,314.7269 C468.55,332.7369 468.55,347.7569 468.55,367.9369" fill="none" id="OutlookCalendarService-to-CalendarEventItem" style="stroke:#181818;stroke-width:1;"/><polygon fill="#181818" points="468.55,373.9369,472.55,364.9369,468.55,368.9369,464.55,364.9369,468.55,373.9369" style="stroke:#181818;stroke-width:1;"/></g><!--link ScheduleDetailWindow to CalendarEventItem--><g class="link" data-entity-1="ent0005" data-entity-2="ent0006" data-link-type="dependency" data-source-line="42" id="lnk12"><path codeLine="42" d="M710.44,306.6969 C664.33,334.8569 607.1906,369.7496 557.3806,400.1696" fill="none" id="ScheduleDetailWindow-to-CalendarEventItem" style="stroke:#181818;stroke-width:1;"/><polygon fill="#181818" points="552.26,403.2969,562.0257,402.0197,556.5272,400.6908,557.856,395.1923,552.26,403.2969" style="stroke:#181818;stroke-width:1;"/></g><?plantuml-src TLB1Ri8m3BttAthiDFY5IK3fn0HYQc4xXyGhMTsaIbnGDUtVbxIZAwDS8iT-ydj-Dab221VQk0UPjM4Ao4XgPO-o2cF9SiFA8E1jRSEaUfTAw7Fu5OJXurQby6707XSCGGbcDg3g1KfUH0zT_MuXuqSGDKBAL0v_bMa2nFjsCziexlBVjmBU99mtMW1sIlQLO0HNJMq49r1asxOpQsMkraovj2Gek-oybYWoo4kFYomnGnD7F4676x1kQqAjYukg3Cn9SkY8du5sMh1csN9rWaaNe5g259WOb1EZonXiGRhwxJd0xaoJkD4IQIpj3KO7BPg1YCjiCH2JUBs5RGNgHKkrbggujX-rxTtjMrq6QKMjd1jTdwm-V0AdDlHMh3Ldw7zB9VfuPMU8CMjyx9F-L7myTsfV3PpSMlpNgt53UCx1qKodJsCh_0yPz_i_QioGOEn0FFXcvE3EKiV1e-QFGdy0?></g></svg>