<?plantuml 1.2026.1?><svg xmlns="http://www.w3.org/2000/svg" xmlns:xlink="http://www.w3.org/1999/xlink" contentStyleType="text/css" data-diagram-type="SEQUENCE" height="469px" preserveAspectRatio="none" style="width:384px;height:469px;background:#FFFFFF;" version="1.1" viewBox="0 0 384 469" width="384px" zoomAndPan="magnify"><title>Join Link Launch Sequence</title><defs/><g><text fill="#000000" font-family="sans-serif" font-size="14" font-weight="bold" lengthAdjust="spacing" textLength="210.6016" x="87.8398" y="27.9951">Join Link Launch Sequence</text><rect fill="none" height="207.4063" style="stroke:#000000;stroke-width:1.5;" width="367.2813" x="10" y="164.7266"/><rect fill="none" height="103.2031" style="stroke:#000000;stroke-width:1.5;" width="290.811" x="20" y="217.9922"/><g class="participant-lifeline" data-entity-uid="part1" data-qualified-name="User" id="part1-lifeline"><g><title>User</title><rect fill="#000000" fill-opacity="0.00000" height="270.5391" width="8" x="44.9551" y="118.5938"/><line style="stroke:#181818;stroke-width:0.5;stroke-dasharray:5,5;" x1="48" x2="48" y1="118.5938" y2="389.1328"/></g></g><g class="participant-lifeline" data-entity-uid="part2" data-qualified-name="ScheduleDetailWindow" id="part2-lifeline"><g><title>ScheduleDetailWindow</title><rect fill="#000000" fill-opacity="0.00000" height="270.5391" width="8" x="209.27" y="118.5938"/><line style="stroke:#181818;stroke-width:0.5;stroke-dasharray:5,5;" x1="212.729" x2="212.729" y1="118.5938" y2="389.1328"/></g></g><g class="participant-lifeline" data-entity-uid="part3" data-qualified-name="OS" id="part3-lifeline"><g><title>OS</title><rect fill="#000000" fill-opacity="0.00000" height="270.5391" width="8" x="346.3281" y="118.5938"/><line style="stroke:#181818;stroke-width:0.5;stroke-dasharray:5,5;" x1="349.375" x2="349.375" y1="118.5938" y2="389.1328"/></g></g><g class="participant participant-head" data-entity-uid="part1" data-qualified-name="User" id="part1-head"><text fill="#000000" font-family="sans-serif" font-size="14" lengthAdjust="spacing" textLength="31.9102" x="30" y="115.292">User</text><ellipse cx="48.9551" cy="50.7969" fill="#E2E2F0" rx="8" ry="8" style="stroke:#181818;stroke-width:0.5;"/><path d="M48.9551,58.7969 L48.9551,85.7969 M35.9551,66.7969 L61.9551,66.7969 M48.9551,85.7969 L35.9551,100.7969 M48.9551,85.7969 L61.9551,100.7969" fill="none" style="stroke:#181818;stroke-width:0.5;"/></g><g class="participant participant-tail" data-entity-uid="part1" data-qualified-name="User" id="part1-tail"><text fill="#000000" font-family="sans-serif" font-size="14" lengthAdjust="spacing" textLength="31.9102" x="30" y="401.1279">User</text><ellipse cx="48.9551" cy="412.9297" fill="#E2E2F0" rx="8" ry="8" style="stroke:#181818;stroke-width:0.5;"/><path d="M48.9551,420.9297 L48.9551,447.9297 M35.9551,428.9297 L61.9551,428.9297 M48.9551,447.9297 L35.9551,462.9297 M48.9551,447.9297 L61.9551,462.9297" fill="none" style="stroke:#181818;stroke-width:0.5;"/></g><g class="participant participant-head" data-entity-uid="part2" data-qualified-name="ScheduleDetailWindow" id="part2-head"><rect fill="#E2E2F0" height="30.2969" rx="2.5" ry="2.5" style="stroke:#181818;stroke-width:0.5;" width="175.082" x="125.729" y="87.2969"/><text fill="#000000" font-family="sans-serif" font-size="14" lengthAdjust="spacing" textLength="161.082" x="132.729" y="107.292">ScheduleDetailWindow</text></g><g class="participant participant-tail" data-entity-uid="part2" data-qualified-name="ScheduleDetailWindow" id="part2-tail"><rect fill="#E2E2F0" height="30.2969" rx="2.5" ry="2.5" style="stroke:#181818;stroke-width:0.5;" width="175.082" x="125.729" y="388.1328"/><text fill="#000000" font-family="sans-serif" font-size="14" lengthAdjust="spacing" textLength="161.082" x="132.729" y="408.1279">ScheduleDetailWindow</text></g><g class="participant participant-head" data-entity-uid="part3" data-qualified-name="OS" id="part3-head"><rect fill="#E2E2F0" height="30.2969" rx="2.5" ry="2.5" style="stroke:#181818;stroke-width:0.5;" width="33.9063" x="333.375" y="87.2969"/><text fill="#000000" font-family="sans-serif" font-size="14" lengthAdjust="spacing" textLength="19.9063" x="340.375" y="107.292">OS</text></g><g class="participant participant-tail" data-entity-uid="part3" data-qualified-name="OS" id="part3-tail"><rect fill="#E2E2F0" height="30.2969" rx="2.5" ry="2.5" style="stroke:#181818;stroke-width:0.5;" width="33.9063" x="333.375" y="388.1328"/><text fill="#000000" font-family="sans-serif" font-size="14" lengthAdjust="spacing" textLength="19.9063" x="340.375" y="408.1279">OS</text></g><g class="message" data-entity-1="part1" data-entity-2="part2" id="msg1"><polygon fill="#181818" points="201.27,145.7266,211.27,149.7266,201.27,153.7266,205.27,149.7266" style="stroke:#181818;stroke-width:1;"/><line style="stroke:#181818;stroke-width:1;" x1="48.9551" x2="207.27" y1="149.7266" y2="149.7266"/><text fill="#000000" font-family="sans-serif" font-size="13" lengthAdjust="spacing" textLength="140.3149" x="55.9551" y="144.6606">Click "Open Join Link"</text></g><path d="M10,164.7266 L74.4429,164.7266 L74.4429,171.8594 L64.4429,181.8594 L10,181.8594 L10,164.7266" fill="#EEEEEE" style="stroke:#000000;stroke-width:1.5;"/><rect fill="none" height="207.4063" style="stroke:#000000;stroke-width:1.5;" width="367.2813" x="10" y="164.7266"/><text fill="#000000" font-family="sans-serif" font-size="13" font-weight="bold" lengthAdjust="spacing" textLength="19.4429" x="25" y="177.7935">alt</text><text fill="#000000" font-family="sans-serif" font-size="11" font-weight="bold" lengthAdjust="spacing" textLength="91.9424" x="89.4429" y="176.937">[JoinUrl exists]</text><g class="message" data-entity-1="part2" data-entity-2="part3" id="msg2"><polygon fill="#181818" points="338.3281,198.9922,348.3281,202.9922,338.3281,206.9922,342.3281,202.9922" style="stroke:#181818;stroke-width:1;"/><line style="stroke:#181818;stroke-width:1;" x1="213.27" x2="344.3281" y1="202.9922" y2="202.9922"/><text fill="#000000" font-family="sans-serif" font-size="13" lengthAdjust="spacing" textLength="113.0581" x="220.27" y="197.9263">Process.Start(url)</text></g><path d="M20,217.9922 L84.4429,217.9922 L84.4429,225.125 L74.4429,235.125 L20,235.125 L20,217.9922" fill="#EEEEEE" style="stroke:#000000;stroke-width:1.5;"/><rect fill="none" height="103.2031" style="stroke:#000000;stroke-width:1.5;" width="290.811" x="20" y="217.9922"/><text fill="#000000" font-family="sans-serif" font-size="13" font-weight="bold" lengthAdjust="spacing" textLength="19.4429" x="35" y="231.0591">alt</text><text fill="#000000" font-family="sans-serif" font-size="11" font-weight="bold" lengthAdjust="spacing" textLength="120.6401" x="99.4429" y="230.2026">[launch succeeded]</text><g class="message" data-entity-1="part2" data-entity-2="part2" id="msg3"><line style="stroke:#181818;stroke-width:1;" x1="213.27" x2="255.27" y1="256.2578" y2="256.2578"/><line style="stroke:#181818;stroke-width:1;" x1="255.27" x2="255.27" y1="256.2578" y2="269.2578"/><line style="stroke:#181818;stroke-width:1;" x1="214.27" x2="255.27" y1="269.2578" y2="269.2578"/><polygon fill="#181818" points="224.27,265.2578,214.27,269.2578,224.27,273.2578,220.27,269.2578" style="stroke:#181818;stroke-width:1;"/><text fill="#000000" font-family="sans-serif" font-size="13" lengthAdjust="spacing" textLength="45.5571" x="220.27" y="251.1919">Close()</text></g><line style="stroke:#000000;stroke-width:1;stroke-dasharray:2,2;" x1="20" x2="310.811" y1="278.2578" y2="278.2578"/><text fill="#000000" font-family="sans-serif" font-size="11" font-weight="bold" lengthAdjust="spacing" textLength="90.1753" x="25" y="288.4683">[launch failed]</text><g class="message" data-entity-1="part2" data-entity-2="part1" id="msg4"><polygon fill="#181818" points="59.9551,309.1953,49.9551,313.1953,59.9551,317.1953,55.9551,313.1953" style="stroke:#181818;stroke-width:1;"/><line style="stroke:#181818;stroke-width:1;" x1="53.9551" x2="212.27" y1="313.1953" y2="313.1953"/><text fill="#000000" font-family="sans-serif" font-size="13" lengthAdjust="spacing" textLength="114.9751" x="65.9551" y="308.1294">Show error dialog</text></g><line style="stroke:#000000;stroke-width:1;stroke-dasharray:2,2;" x1="10" x2="377.2813" y1="329.1953" y2="329.1953"/><text fill="#000000" font-family="sans-serif" font-size="11" font-weight="bold" lengthAdjust="spacing" textLength="103.0659" x="15" y="339.4058">[JoinUrl missing]</text><g class="message" data-entity-1="part2" data-entity-2="part1" id="msg5"><polygon fill="#181818" points="59.9551,360.1328,49.9551,364.1328,59.9551,368.1328,55.9551,364.1328" style="stroke:#181818;stroke-width:1;"/><line style="stroke:#181818;stroke-width:1;stroke-dasharray:2,2;" x1="53.9551" x2="212.27" y1="364.1328" y2="364.1328"/><text fill="#000000" font-family="sans-serif" font-size="13" lengthAdjust="spacing" textLength="102.394" x="65.9551" y="359.0669">Button disabled</text></g><?plantuml-src XT2nJWCn30RWFKzXTIe3F4071c12bGufgfX3OdfMZNF4Zk3nyHsgAgIU61tPd_u_HiO8pvK4zYGdsASkUOI8dnqbOmWfMsrmK6nXIiqeqvJ48EOHIsTyGal4hoIbVlrP6688ynNStbzTXXqyCkKJR8O9vP9W4nBRCXuQ0twJcWQuJZWzH8TUMiseUXVD0snxunk_c1d-RQCzPyI2nP_NgTMKLN4xYyYAP_BTL_xnblOxYAEFs9h_Og74zJXBKiAYdNj-a2h9SRNeXNlePbMSqlGs9t3g1m00?></g></svg>